<svg width="50" height="50" viewBox="0 0 50 50" fill="none" xmlns="http://www.w3.org/2000/svg">
<path d="M25.8626 9.40641C26.2533 9.01585 26.7831 8.79644 27.3355 8.79644C27.8879 8.79644 28.4177 9.01585 28.8084 9.40641L39.6209 20.2189C40.198 20.7952 40.5932 21.5282 40.7576 22.327C40.9221 23.1258 40.8484 23.9553 40.5459 24.7127L35.6188 37.0314C35.3424 37.721 34.8866 38.3242 34.2987 38.7784C33.7108 39.2326 33.0121 39.5214 32.2751 39.6147C30.0251 39.9022 25.1188 40.521 21.6938 40.9356C19.4751 41.2064 16.2668 41.9147 13.5418 42.5814C12.0593 42.9428 10.5814 43.3227 9.10843 43.721L8.83759 43.7981C8.80426 43.805 8.77995 43.812 8.76468 43.8189L8.74801 43.821H8.74384C8.38871 43.9188 8.01402 43.9207 7.65788 43.8267C7.30175 43.7326 6.97688 43.5459 6.71631 43.2856C6.45575 43.0252 6.26879 42.7005 6.17446 42.3445C6.08012 41.9884 6.08178 41.6137 6.17926 41.2585V41.2502L6.18551 41.2335L6.20426 41.1647L6.27926 40.8897C6.34176 40.6502 6.43759 40.3022 6.55009 39.8689C6.77926 39.0043 7.09176 37.8022 7.42093 36.4564C8.08551 33.7314 8.79593 30.5231 9.06468 28.3043C9.19593 27.221 9.34593 25.9897 9.50218 24.7418C9.57014 24.1934 9.85316 23.6945 10.289 23.3548C10.7248 23.0151 11.2777 22.8624 11.8261 22.9304C12.3745 22.9983 12.8735 23.2814 13.2132 23.7172C13.5529 24.153 13.7056 24.7059 13.6376 25.2543L13.2001 28.8043C12.9834 30.5939 12.5251 32.8647 12.0376 35.0127L18.8938 28.1564C18.6548 27.2704 18.7153 26.3302 19.0659 25.4821C19.4165 24.634 20.0376 23.9256 20.8324 23.4669C21.6273 23.0083 22.5515 22.8252 23.4612 22.9461C24.3709 23.0671 25.2151 23.4852 25.8626 24.1356C26.5101 24.7844 26.9256 25.6286 27.0447 26.5375C27.1639 27.4463 26.9799 28.3691 26.5215 29.1629C26.063 29.9566 25.3556 30.5771 24.5088 30.9281C23.662 31.279 22.7232 31.341 21.8376 31.1043L14.9834 37.9585C17.1334 37.471 19.4043 37.0147 21.1918 36.7981L31.7501 35.4814L36.6772 23.1647L25.8647 12.3502C25.4741 11.9595 25.2547 11.4297 25.2547 10.8772C25.2547 10.3248 25.4741 9.79501 25.8647 9.40433M31.7605 6.4585C32.1511 6.06857 32.6805 5.84957 33.2324 5.84957C33.7843 5.84957 34.3137 6.06857 34.7043 6.4585L43.5418 15.2981C43.9073 15.6938 44.1055 16.2155 44.095 16.7541C44.0844 17.2927 43.8659 17.8063 43.4851 18.1873C43.1043 18.5683 42.5909 18.7873 42.0523 18.7982C41.5138 18.8091 40.9919 18.6113 40.5959 18.246L31.7584 9.40641C31.3679 9.01573 31.1485 8.48592 31.1485 7.9335C31.1485 7.38107 31.3679 6.85126 31.7584 6.46058M12.5001 2.0835C12.9347 2.08367 13.3583 2.21973 13.7117 2.47264C14.0651 2.72555 14.3306 3.08264 14.4709 3.49391L14.7418 4.28141C15.3668 6.11266 16.8043 7.55225 18.6376 8.17725L19.423 8.446C19.8338 8.58677 20.1904 8.85241 20.4428 9.20578C20.6953 9.55914 20.831 9.98256 20.831 10.4168C20.831 10.8511 20.6953 11.2745 20.4428 11.6279C20.1904 11.9812 19.8338 12.2469 19.423 12.3877L18.6355 12.6585C16.8043 13.2835 15.3647 14.721 14.7397 16.5543L14.4709 17.3397C14.3301 17.7506 14.0645 18.1071 13.7111 18.3596C13.3578 18.612 12.9344 18.7477 12.5001 18.7477C12.0658 18.7477 11.6424 18.612 11.289 18.3596C10.9357 18.1071 10.67 17.7506 10.5293 17.3397L10.2584 16.5522C9.94989 15.6484 9.4383 14.8272 8.76295 14.1519C8.08761 13.4765 7.26647 12.965 6.36259 12.6564L5.57718 12.3877C5.16635 12.2469 4.80979 11.9812 4.55735 11.6279C4.3049 11.2745 4.16919 10.8511 4.16919 10.4168C4.16919 9.98256 4.3049 9.55914 4.55735 9.20578C4.80979 8.85241 5.16635 8.58677 5.57718 8.446L6.36468 8.17516C8.19593 7.55016 9.63551 6.11266 10.2605 4.27933L10.5293 3.49391L10.6584 3.18975C10.8359 2.85545 11.1012 2.57583 11.4257 2.38092C11.7501 2.18602 12.1216 2.08319 12.5001 2.0835ZM12.5001 8.74183C12.0073 9.36204 11.4453 9.924 10.8251 10.4168C11.4487 10.9099 12.007 11.4675 12.5001 12.0897C12.9945 11.4689 13.5522 10.9113 14.173 10.4168C13.5535 9.92388 12.9923 9.36192 12.5001 8.74183Z" fill="url(#paint0_linear_106_86)"/>
<defs>
<linearGradient id="paint0_linear_106_86" x1="24.1323" y1="2.0835" x2="24.1323" y2="43.8958" gradientUnits="userSpaceOnUse">
<stop offset="0.00961538" stop-color="#20A9EF"/>
<stop offset="0.870192" stop-color="#971FFF"/>
</linearGradient>
</defs>
</svg>
