<svg width="42" height="42" viewBox="0 0 42 42" fill="none" xmlns="http://www.w3.org/2000/svg">
<path fill-rule="evenodd" clip-rule="evenodd" d="M9.45 3.5H32.55C34.128 3.5 35.6414 4.12687 36.7573 5.24271C37.8731 6.35856 38.5 7.87196 38.5 9.45V32.55C38.5 34.128 37.8731 35.6414 36.7573 36.7573C35.6414 37.8731 34.128 38.5 32.55 38.5H9.45C7.87196 38.5 6.35856 37.8731 5.24271 36.7573C4.12687 35.6414 3.5 34.128 3.5 32.55V9.45C3.5 7.87196 4.12687 6.35856 5.24271 5.24271C6.35856 4.12687 7.87196 3.5 9.45 3.5ZM12.25 8.75C12.7141 8.75 13.1592 8.93437 13.4874 9.26256C13.8156 9.59075 14 10.0359 14 10.5V24.5C14 24.9641 13.8156 25.4092 13.4874 25.7374C13.1592 26.0656 12.7141 26.25 12.25 26.25C11.7859 26.25 11.3408 26.0656 11.0126 25.7374C10.6844 25.4092 10.5 24.9641 10.5 24.5V10.5C10.5 10.0359 10.6844 9.59075 11.0126 9.26256C11.3408 8.93437 11.7859 8.75 12.25 8.75ZM21 8.75C21.4641 8.75 21.9092 8.93437 22.2374 9.26256C22.5656 9.59075 22.75 10.0359 22.75 10.5V21C22.75 21.4641 22.5656 21.9092 22.2374 22.2374C21.9092 22.5656 21.4641 22.75 21 22.75C20.5359 22.75 20.0908 22.5656 19.7626 22.2374C19.4344 21.9092 19.25 21.4641 19.25 21V10.5C19.25 10.0359 19.4344 9.59075 19.7626 9.26256C20.0908 8.93437 20.5359 8.75 21 8.75ZM31.5 10.5C31.5 10.0359 31.3156 9.59075 30.9874 9.26256C30.6592 8.93437 30.2141 8.75 29.75 8.75C29.2859 8.75 28.8408 8.93437 28.5126 9.26256C28.1844 9.59075 28 10.0359 28 10.5V28C28 28.4641 28.1844 28.9092 28.5126 29.2374C28.8408 29.5656 29.2859 29.75 29.75 29.75C30.2141 29.75 30.6592 29.5656 30.9874 29.2374C31.3156 28.9092 31.5 28.4641 31.5 28V10.5Z" fill="url(#paint0_linear_22_19)"/>
<defs>
<linearGradient id="paint0_linear_22_19" x1="21" y1="3.5" x2="21" y2="38.5" gradientUnits="userSpaceOnUse">
<stop stop-color="#7F13EC"/>
<stop offset="1" stop-color="#0DCCF2"/>
</linearGradient>
</defs>
</svg>
